<?xml version="1.0" encoding="utf-8"?>
<!-- Generator: Adobe Illustrator 16.0.3, SVG Export Plug-In . SVG Version: 6.00 Build 0)  -->
<!DOCTYPE svg PUBLIC "-//W3C//DTD SVG 1.1//EN" "http://www.w3.org/Graphics/SVG/1.1/DTD/svg11.dtd">
<svg version="1.1" id="Layer_1" xmlns="http://www.w3.org/2000/svg" xmlns:xlink="http://www.w3.org/1999/xlink" x="0px" y="0px"
	 width="673.452px" height="249.725px" viewBox="0 0 673.452 249.725" enable-background="new 0 0 673.452 249.725"
	 xml:space="preserve">
<polygon fill="#86754F" points="0,97.759 0,249.725 3.813,247.595 3.813,88.722 "/>
<polygon fill="#86754F" points="7.48,80.029 7.48,245.547 10.897,243.592 10.897,71.931 "/>
<polygon fill="#86754F" points="13.774,65.112 13.774,242.032 16.83,240.265 16.83,57.868 "/>
<polygon fill="#86754F" points="20.606,48.917 20.606,238.216 23.394,236.66 23.394,42.312 "/>
<polygon fill="#86754F" points="27.26,33.148 27.26,234.501 29.238,233.396 29.238,28.461 "/>
<polygon fill="#86754F" points="33.283,18.872 33.283,231.137 35.081,230.134 35.081,14.611 "/>
<polygon fill="#86754F" points="41.245,0 41.105,0.332 41.105,227.181 43.352,227.637 43.352,2.16 "/>
<polygon fill="#86754F" points="50.089,9.067 50.089,229.005 51.989,229.39 51.989,11.014 "/>
<polygon fill="#86754F" points="58.006,17.183 58.006,230.612 60.169,231.051 60.169,19.401 "/>
<polygon fill="#86754F" points="97.114,57.273 97.114,238.551 101.34,239.409 101.34,61.606 "/>
<polygon fill="#86754F" points="65.917,25.293 65.917,232.218 68.255,232.693 68.255,27.69 "/>
<polygon fill="#86754F" points="73.829,33.403 73.829,233.824 76.347,234.335 76.347,35.984 "/>
<polygon fill="#86754F" points="81.291,41.053 81.291,235.339 84.708,236.032 84.708,44.556 "/>
<polygon fill="#86754F" points="89.382,49.348 89.382,236.982 92.799,237.676 92.799,52.851 "/>
<g>
	<g>
		<path fill="#86754F" d="M138.122,105.72h31.434V86.36c0-3.459-0.217-5.738-0.648-6.835c-0.333-0.831-1.031-1.547-2.096-2.146
			c-1.431-0.798-2.944-1.197-4.541-1.197h-2.395v-1.846h28.939v1.846h-2.396c-1.597,0-3.11,0.383-4.54,1.147
			c-1.065,0.533-1.789,1.339-2.171,2.42c-0.383,1.081-0.573,3.285-0.573,6.611v43.658c0,3.426,0.216,5.688,0.648,6.786
			c0.332,0.832,1.014,1.547,2.046,2.146c1.463,0.798,2.993,1.197,4.59,1.197h2.396v1.846h-28.939v-1.846h2.395
			c2.761,0,4.773-0.814,6.038-2.445c0.831-1.064,1.247-3.625,1.247-7.684v-20.606h-31.434v20.606c0,3.426,0.216,5.688,0.648,6.786
			c0.332,0.832,1.031,1.547,2.096,2.146c1.43,0.798,2.944,1.197,4.541,1.197h2.445v1.846h-28.989v-1.846h2.395
			c2.794,0,4.823-0.814,6.087-2.445c0.798-1.064,1.197-3.625,1.197-7.684V86.36c0-3.459-0.217-5.738-0.648-6.835
			c-0.333-0.831-1.015-1.547-2.046-2.146c-1.464-0.798-2.994-1.197-4.59-1.197h-2.395v-1.846h28.989v1.846h-2.445
			c-1.597,0-3.111,0.383-4.541,1.147c-1.032,0.533-1.747,1.339-2.146,2.42c-0.399,1.081-0.599,3.285-0.599,6.611V105.72z"/>
		<path fill="#86754F" d="M237.661,119.341h-26.194l-4.59,10.678c-1.132,2.628-1.697,4.59-1.697,5.888
			c0,1.031,0.491,1.938,1.473,2.719c0.98,0.782,3.101,1.289,6.361,1.521v1.846h-21.306v-1.846c2.827-0.499,4.657-1.147,5.489-1.946
			c1.696-1.597,3.575-4.84,5.638-9.729l23.8-55.683h1.746l23.551,56.281c1.896,4.524,3.617,7.459,5.164,8.807s3.7,2.104,6.461,2.27
			v1.846h-26.693v-1.846c2.694-0.132,4.516-0.582,5.464-1.347c0.947-0.765,1.422-1.696,1.422-2.794c0-1.463-0.666-3.775-1.996-6.936
			L237.661,119.341z M236.264,115.649l-11.476-27.342l-11.775,27.342H236.264z"/>
		<path fill="#86754F" d="M266.45,141.993v-1.846h2.545c2.86,0,4.89-0.915,6.087-2.744c0.731-1.098,1.098-3.559,1.098-7.384V86.311
			c0-4.224-0.466-6.868-1.396-7.933c-1.298-1.463-3.228-2.195-5.788-2.195h-2.545v-1.846h27.542c10.111,0,17.804,1.147,23.076,3.443
			c5.271,2.295,9.513,6.121,12.724,11.476c3.209,5.356,4.814,11.543,4.814,18.561c0,9.414-2.861,17.281-8.582,23.6
			c-6.42,7.052-16.199,10.578-29.338,10.578H266.45z M285.759,137.104c4.224,0.932,7.767,1.397,10.628,1.397
			c7.716,0,14.12-2.71,19.209-8.133c5.089-5.421,7.634-12.773,7.634-22.053c0-9.347-2.545-16.715-7.634-22.104
			s-11.625-8.083-19.608-8.083c-2.994,0-6.404,0.482-10.229,1.447V137.104z"/>
		<path fill="#86754F" d="M407.552,141.993H389.49l-22.901-31.633c-1.696,0.067-3.077,0.1-4.142,0.1
			c-0.433,0-0.897-0.008-1.396-0.025c-0.499-0.016-1.016-0.041-1.547-0.075v19.659c0,4.258,0.465,6.902,1.396,7.933
			c1.264,1.464,3.16,2.195,5.688,2.195h2.645v1.846h-28.989v-1.846h2.545c2.86,0,4.906-0.931,6.137-2.794
			c0.699-1.031,1.048-3.476,1.048-7.334V86.311c0-4.257-0.466-6.902-1.396-7.933c-1.298-1.463-3.228-2.195-5.788-2.195h-2.545
			v-1.846h24.648c7.185,0,12.481,0.524,15.892,1.572c3.409,1.048,6.303,2.977,8.682,5.788c2.378,2.812,3.567,6.162,3.567,10.054
			c0,4.159-1.355,7.768-4.066,10.827c-2.712,3.061-6.911,5.223-12.599,6.486l13.971,19.409c3.193,4.458,5.938,7.418,8.232,8.881
			c2.295,1.464,5.289,2.395,8.981,2.794V141.993z M359.503,107.216c0.631,0,1.18,0.009,1.646,0.025
			c0.465,0.017,0.848,0.025,1.147,0.025c6.453,0,11.317-1.397,14.594-4.191s4.915-6.353,4.915-10.677
			c0-4.224-1.322-7.659-3.967-10.303c-2.645-2.645-6.146-3.967-10.503-3.967c-1.93,0-4.54,0.316-7.833,0.948V107.216z"/>
		<path fill="#86754F" d="M438.187,140.147v1.846h-28.988v-1.846h2.395c2.794,0,4.823-0.814,6.087-2.445
			c0.799-1.064,1.198-3.625,1.198-7.684V86.311c0-3.425-0.217-5.688-0.649-6.786c-0.332-0.831-1.015-1.547-2.045-2.146
			c-1.465-0.798-2.994-1.197-4.591-1.197h-2.395v-1.846h28.988v1.846h-2.444c-2.762,0-4.773,0.815-6.037,2.445
			c-0.832,1.065-1.248,3.626-1.248,7.684v43.708c0,3.426,0.216,5.688,0.648,6.786c0.333,0.832,1.031,1.547,2.096,2.146
			c1.43,0.798,2.944,1.197,4.541,1.197H438.187z"/>
		<path fill="#86754F" d="M487.433,119.341h-26.194l-4.59,10.678c-1.132,2.628-1.697,4.59-1.697,5.888
			c0,1.031,0.491,1.938,1.473,2.719c0.98,0.782,3.101,1.289,6.361,1.521v1.846H441.48v-1.846c2.827-0.499,4.657-1.147,5.489-1.946
			c1.696-1.597,3.575-4.84,5.638-9.729l23.8-55.683h1.746l23.551,56.281c1.896,4.524,3.617,7.459,5.164,8.807s3.7,2.104,6.461,2.27
			v1.846h-26.693v-1.846c2.694-0.132,4.516-0.582,5.464-1.347c0.947-0.765,1.422-1.696,1.422-2.794c0-1.463-0.666-3.775-1.996-6.936
			L487.433,119.341z M486.037,115.649l-11.476-27.342l-11.775,27.342H486.037z"/>
		<path fill="#86754F" d="M513.129,74.336h18.36l41.363,50.743V86.061c0-4.158-0.467-6.752-1.397-7.783
			c-1.23-1.397-3.177-2.096-5.837-2.096h-2.346v-1.846h23.551v1.846h-2.396c-2.861,0-4.89,0.865-6.087,2.594
			c-0.732,1.065-1.098,3.493-1.098,7.285v57.03h-1.796l-44.606-54.485v41.662c0,4.158,0.449,6.753,1.348,7.783
			c1.264,1.397,3.209,2.096,5.838,2.096h2.395v1.846h-23.551v-1.846h2.346c2.894,0,4.939-0.864,6.137-2.594
			c0.731-1.064,1.098-3.493,1.098-7.285V83.217c-1.963-2.295-3.451-3.809-4.466-4.541c-1.015-0.731-2.503-1.414-4.465-2.046
			c-0.966-0.299-2.429-0.449-4.391-0.449V74.336z"/>
		<path fill="#86754F" d="M600.145,98.635V96.29c3.426-2.028,5.754-3.924,6.985-5.688c0.864-1.264,1.297-2.777,1.297-4.541
			c0-1.03-0.183-1.796-0.549-2.295c-0.399-0.499-0.832-0.749-1.297-0.749c-0.366,0-0.849,0.117-1.447,0.349
			c-0.865,0.299-1.58,0.449-2.146,0.449c-1.331,0-2.512-0.499-3.542-1.497c-1.032-0.998-1.547-2.245-1.547-3.742
			c0-1.663,0.515-2.96,1.547-3.892c1.396-1.264,3.06-1.896,4.989-1.896c2.228,0,4.232,0.94,6.012,2.819
			c1.779,1.879,2.67,4.216,2.67,7.01c0,3.925-1.48,7.501-4.44,10.727C606.714,95.475,603.87,97.238,600.145,98.635z"/>
	</g>
	<g>
		<path fill="#86754F" d="M668.961,72.789V96.19h-1.847c-0.599-4.491-1.671-8.066-3.218-10.728
			c-1.547-2.661-3.751-4.773-6.611-6.336c-2.861-1.563-5.821-2.345-8.881-2.345c-3.46,0-6.32,1.056-8.582,3.168
			c-2.263,2.113-3.394,4.515-3.394,7.209c0,2.063,0.716,3.942,2.146,5.638c2.063,2.495,6.969,5.821,14.72,9.979
			c6.319,3.393,10.635,5.996,12.947,7.809c2.312,1.813,4.092,3.95,5.339,6.412c1.247,2.462,1.871,5.039,1.871,7.733
			c0,5.123-1.988,9.539-5.963,13.247c-3.975,3.709-9.089,5.563-15.342,5.563c-1.964,0-3.81-0.15-5.539-0.449
			c-1.031-0.167-3.168-0.773-6.411-1.821s-5.298-1.571-6.162-1.571c-0.832,0-1.489,0.249-1.971,0.748
			c-0.482,0.499-0.841,1.53-1.073,3.094h-1.846v-23.201h1.846c0.865,4.857,2.029,8.491,3.493,10.902
			c1.463,2.412,3.7,4.416,6.711,6.012c3.01,1.597,6.312,2.395,9.904,2.395c4.157,0,7.441-1.098,9.854-3.293
			c2.411-2.195,3.617-4.79,3.617-7.784c0-1.663-0.457-3.343-1.372-5.039s-2.337-3.276-4.266-4.74
			c-1.297-0.998-4.84-3.118-10.628-6.361c-5.787-3.243-9.903-5.829-12.349-7.759c-2.444-1.929-4.3-4.058-5.563-6.387
			c-1.265-2.328-1.896-4.89-1.896-7.684c0-4.856,1.862-9.039,5.588-12.548c3.725-3.509,8.465-5.264,14.22-5.264
			c3.593,0,7.401,0.882,11.427,2.645c1.862,0.832,3.176,1.248,3.941,1.248c0.864,0,1.571-0.257,2.12-0.773
			c0.549-0.516,0.989-1.555,1.322-3.119H668.961z"/>
	</g>
	<g>
		<path fill="#86754F" d="M176.239,171.904l0.749,15.867h-1.896c-0.366-2.794-0.865-4.79-1.497-5.988
			c-1.031-1.929-2.403-3.351-4.116-4.266c-1.713-0.915-3.967-1.372-6.761-1.372h-9.529v51.69c0,4.159,0.448,6.753,1.347,7.784
			c1.264,1.396,3.21,2.096,5.838,2.096h2.345v1.846h-28.689v-1.846h2.395c2.86,0,4.89-0.865,6.087-2.595
			c0.731-1.064,1.098-3.493,1.098-7.285v-51.69h-8.133c-3.161,0-5.406,0.233-6.736,0.698c-1.73,0.632-3.21,1.846-4.44,3.643
			c-1.231,1.796-1.963,4.225-2.196,7.285h-1.896l0.798-15.867H176.239z"/>
	</g>
	<g>
		<path fill="#86754F" d="M215.083,170.357c8.781,0,16.391,3.335,22.827,10.004c6.437,6.669,9.654,14.994,9.654,24.972
			c0,10.278-3.243,18.811-9.729,25.596c-6.486,6.786-14.337,10.179-23.55,10.179c-9.314,0-17.14-3.31-23.476-9.929
			c-6.337-6.619-9.505-15.185-9.505-25.696c0-10.744,3.658-19.509,10.977-26.294C198.633,173.301,206.234,170.357,215.083,170.357z
			 M214.134,174c-6.054,0-10.91,2.245-14.569,6.736c-4.558,5.588-6.835,13.771-6.835,24.548c0,11.044,2.361,19.542,7.085,25.497
			c3.625,4.523,8.415,6.785,14.369,6.785c6.354,0,11.601-2.478,15.742-7.434s6.212-12.773,6.212-23.451
			c0-11.575-2.279-20.207-6.836-25.895C225.643,176.262,220.587,174,214.134,174z"/>
		<path fill="#86754F" d="M347.154,171.904v1.846c-1.764,0-3.193,0.316-4.291,0.948c-1.098,0.632-2.146,1.813-3.144,3.542
			c-0.666,1.165-1.714,3.942-3.144,8.333l-18.86,54.535h-1.995l-15.418-43.259l-15.317,43.259h-1.796l-20.108-56.182
			c-1.496-4.191-2.444-6.669-2.844-7.434c-0.666-1.264-1.571-2.203-2.719-2.819c-1.148-0.615-2.703-0.923-4.666-0.923v-1.846H277.9
			v1.846h-1.197c-1.764,0-3.111,0.399-4.042,1.197c-0.932,0.798-1.396,1.764-1.396,2.894c0,1.165,0.73,3.842,2.195,8.033
			l13.321,37.97l11.227-32.282l-1.996-5.688l-1.597-4.541c-0.698-1.663-1.48-3.126-2.345-4.391
			c-0.433-0.632-0.965-1.164-1.597-1.597c-0.832-0.599-1.664-1.031-2.495-1.297c-0.632-0.2-1.63-0.299-2.993-0.299v-1.846h26.345
			v1.846h-1.797c-1.863,0-3.227,0.399-4.091,1.197c-0.865,0.798-1.298,1.88-1.298,3.243c0,1.696,0.749,4.657,2.245,8.881
			l12.973,36.772l12.873-37.271c1.464-4.124,2.195-6.985,2.195-8.582c0-0.765-0.241-1.479-0.724-2.145
			c-0.482-0.665-1.09-1.131-1.82-1.397c-1.265-0.465-2.911-0.698-4.94-0.698v-1.846H347.154z"/>
		<path fill="#86754F" d="M369.306,175.597v26.743h14.869c3.858,0,6.437-0.582,7.733-1.746c1.729-1.53,2.694-4.224,2.895-8.083
			h1.846v23.55h-1.846c-0.467-3.293-0.932-5.405-1.397-6.336c-0.599-1.164-1.58-2.079-2.943-2.744
			c-1.364-0.665-3.46-0.998-6.287-0.998h-14.869v22.303c0,2.994,0.133,4.815,0.399,5.464c0.266,0.648,0.731,1.164,1.397,1.547
			c0.665,0.383,1.929,0.573,3.792,0.573h11.476c3.825,0,6.603-0.266,8.332-0.798s3.394-1.58,4.99-3.144
			c2.062-2.063,4.174-5.172,6.336-9.331h1.996l-5.838,16.964h-52.14v-1.846h2.395c1.597,0,3.11-0.383,4.541-1.148
			c1.063-0.531,1.787-1.329,2.17-2.395c0.382-1.064,0.574-3.243,0.574-6.536v-43.958c0-4.291-0.433-6.935-1.298-7.933
			c-1.197-1.33-3.193-1.996-5.987-1.996h-2.395v-1.846h52.14l0.749,14.819h-1.946c-0.698-3.559-1.472-6.004-2.32-7.334
			c-0.848-1.33-2.104-2.345-3.767-3.044c-1.331-0.499-3.676-0.748-7.035-0.748H369.306z"/>
		<path fill="#86754F" d="M479.424,239.562h-18.063l-22.901-31.633c-1.696,0.067-3.077,0.1-4.142,0.1
			c-0.433,0-0.897-0.008-1.396-0.025c-0.499-0.016-1.016-0.041-1.547-0.075v19.659c0,4.258,0.465,6.902,1.396,7.934
			c1.264,1.464,3.16,2.195,5.688,2.195h2.645v1.846h-28.989v-1.846h2.545c2.86,0,4.906-0.932,6.137-2.795
			c0.699-1.03,1.048-3.475,1.048-7.334v-43.708c0-4.257-0.466-6.902-1.396-7.933c-1.298-1.463-3.228-2.195-5.788-2.195h-2.545
			v-1.846h24.648c7.185,0,12.481,0.524,15.892,1.572c3.409,1.048,6.303,2.977,8.682,5.788c2.378,2.812,3.567,6.162,3.567,10.054
			c0,4.159-1.355,7.768-4.066,10.827c-2.712,3.061-6.911,5.223-12.599,6.486l13.971,19.409c3.193,4.458,5.938,7.418,8.232,8.881
			c2.295,1.465,5.289,2.396,8.981,2.795V239.562z M431.375,204.785c0.631,0,1.18,0.009,1.646,0.025
			c0.465,0.017,0.848,0.025,1.147,0.025c6.453,0,11.317-1.397,14.594-4.191s4.915-6.353,4.915-10.677
			c0-4.224-1.322-7.659-3.967-10.303c-2.645-2.645-6.146-3.967-10.503-3.967c-1.93,0-4.54,0.316-7.833,0.948V204.785z"/>
	</g>
</g>
</svg>
